<?xml version="1.0" encoding="UTF-8"?>
<svg xmlns="http://www.w3.org/2000/svg" viewBox="0 0 1200 800" width="1200" height="800" role="img" aria-label="Mapa LATAM">
  <defs>
    <linearGradient id="bg" x1="0" y1="0" x2="0" y2="1">
      <stop offset="0" stop-color="#03045E"/>
      <stop offset="1" stop-color="#020330"/>
    </linearGradient>
    <radialGradient id="g" cx="50%" cy="50%" r="50%">
      <stop offset="0" stop-color="#00B4D8" stop-opacity="0.2"/>
      <stop offset="1" stop-color="#00B4D8" stop-opacity="0"/>
    </radialGradient>
  </defs>
  <rect width="100%" height="100%" fill="url(#bg)"/>
  <circle cx="50%" cy="50%" r="42%" fill="url(#g)"/>
  <g fill="none" stroke="#0077B6" stroke-opacity="0.55" stroke-width="1.5">
    <path d="M 576 80
             C 744 144, 840 256, 768 368
             C 888 448.00000000000006, 744 576, 648 672
             C 552 736, 456 688, 480 576
             C 360 496, 384 368, 480 288
             C 432 176, 504 96, 576 80 Z"/>
  </g>
  <g>
    <circle cx="552" cy="240" r="6" fill="#FFC300"/>
    <circle cx="648" cy="352" r="6" fill="#00B4D8"/>
    <circle cx="600" cy="496" r="6" fill="#FFC300"/>
    <circle cx="528" cy="608" r="6" fill="#00B4D8"/>
  </g>
  <text x="50%" y="768" text-anchor="middle" font-family="ui-sans-serif, system-ui, -apple-system, sans-serif" font-size="20" fill="#CAF0F8" opacity="0.5">Mapa LATAM · PLACEHOLDER</text>
</svg>